<svg id="visual" viewBox="0 0 960 540" width="960" height="540" xmlns="http://www.w3.org/2000/svg" xmlns:xlink="http://www.w3.org/1999/xlink" version="1.1"><rect x="0" y="0" width="960" height="540" fill="#f5f5f5"></rect><path d="M514 0L500.8 22.5C487.7 45 461.3 90 450.7 135C440 180 445 225 449.3 270C453.7 315 457.3 360 463.2 405C469 450 477 495 481 517.5L485 540L0 540L0 517.5C0 495 0 450 0 405C0 360 0 315 0 270C0 225 0 180 0 135C0 90 0 45 0 22.5L0 0Z" fill="#aac3ae"></path><path d="M462 0L451.3 22.5C440.7 45 419.3 90 406 135C392.7 180 387.3 225 398.8 270C410.3 315 438.7 360 442 405C445.3 450 423.7 495 412.8 517.5L402 540L0 540L0 517.5C0 495 0 450 0 405C0 360 0 315 0 270C0 225 0 180 0 135C0 90 0 45 0 22.5L0 0Z" fill="#a3bea8"></path><path d="M406 0L400.2 22.5C394.3 45 382.7 90 383.2 135C383.7 180 396.3 225 385.7 270C375 315 341 360 331.2 405C321.3 450 335.7 495 342.8 517.5L350 540L0 540L0 517.5C0 495 0 450 0 405C0 360 0 315 0 270C0 225 0 180 0 135C0 90 0 45 0 22.5L0 0Z" fill="#9cb9a1"></path><path d="M384 0L380 22.5C376 45 368 90 369 135C370 180 380 225 373.7 270C367.3 315 344.7 360 331.7 405C318.7 450 315.3 495 313.7 517.5L312 540L0 540L0 517.5C0 495 0 450 0 405C0 360 0 315 0 270C0 225 0 180 0 135C0 90 0 45 0 22.5L0 0Z" fill="#95b59b"></path><path d="M294 0L303 22.5C312 45 330 90 329 135C328 180 308 225 292.2 270C276.3 315 264.7 360 259.8 405C255 450 257 495 258 517.5L259 540L0 540L0 517.5C0 495 0 450 0 405C0 360 0 315 0 270C0 225 0 180 0 135C0 90 0 45 0 22.5L0 0Z" fill="#8eb095"></path><path d="M219 0L233.8 22.5C248.7 45 278.3 90 293.8 135C309.3 180 310.7 225 299.3 270C288 315 264 360 249.3 405C234.7 450 229.3 495 226.7 517.5L224 540L0 540L0 517.5C0 495 0 450 0 405C0 360 0 315 0 270C0 225 0 180 0 135C0 90 0 45 0 22.5L0 0Z" fill="#87ab8f"></path><path d="M279 0L270.8 22.5C262.7 45 246.3 90 233 135C219.7 180 209.3 225 208.7 270C208 315 217 360 224.5 405C232 450 238 495 241 517.5L244 540L0 540L0 517.5C0 495 0 450 0 405C0 360 0 315 0 270C0 225 0 180 0 135C0 90 0 45 0 22.5L0 0Z" fill="#81a588"></path><path d="M221 0L215.8 22.5C210.7 45 200.3 90 195.5 135C190.7 180 191.3 225 195 270C198.7 315 205.3 360 203.5 405C201.7 450 191.3 495 186.2 517.5L181 540L0 540L0 517.5C0 495 0 450 0 405C0 360 0 315 0 270C0 225 0 180 0 135C0 90 0 45 0 22.5L0 0Z" fill="#7a9c81"></path><path d="M170 0L172.7 22.5C175.3 45 180.7 90 176.2 135C171.7 180 157.3 225 157.3 270C157.3 315 171.7 360 172.3 405C173 450 160 495 153.5 517.5L147 540L0 540L0 517.5C0 495 0 450 0 405C0 360 0 315 0 270C0 225 0 180 0 135C0 90 0 45 0 22.5L0 0Z" fill="#73947a"></path><path d="M115 0L122.2 22.5C129.3 45 143.7 90 147.2 135C150.7 180 143.3 225 137 270C130.7 315 125.3 360 123.3 405C121.3 450 122.7 495 123.3 517.5L124 540L0 540L0 517.5C0 495 0 450 0 405C0 360 0 315 0 270C0 225 0 180 0 135C0 90 0 45 0 22.5L0 0Z" fill="#6d8c74"></path><path d="M119 0L119 22.5C119 45 119 90 112.7 135C106.3 180 93.7 225 91 270C88.3 315 95.7 360 100.5 405C105.3 450 107.7 495 108.8 517.5L110 540L0 540L0 517.5C0 495 0 450 0 405C0 360 0 315 0 270C0 225 0 180 0 135C0 90 0 45 0 22.5L0 0Z" fill="#66846d"></path><path d="M57 0L60.2 22.5C63.3 45 69.7 90 72.7 135C75.7 180 75.3 225 75.3 270C75.3 315 75.7 360 74 405C72.3 450 68.7 495 66.8 517.5L65 540L0 540L0 517.5C0 495 0 450 0 405C0 360 0 315 0 270C0 225 0 180 0 135C0 90 0 45 0 22.5L0 0Z" fill="#607c66"></path></svg>