<svg id="visual" viewBox="0 0 960 540" width="960" height="540" xmlns="http://www.w3.org/2000/svg" xmlns:xlink="http://www.w3.org/1999/xlink" version="1.1"><rect x="0" y="0" width="960" height="540" fill="#f5f5f5"></rect><path d="M459 0L467.7 22.5C476.3 45 493.7 90 497.8 135C502 180 493 225 485.3 270C477.7 315 471.3 360 470.8 405C470.3 450 475.7 495 478.3 517.5L481 540L0 540L0 517.5C0 495 0 450 0 405C0 360 0 315 0 270C0 225 0 180 0 135C0 90 0 45 0 22.5L0 0Z" fill="#aac3ae"></path><path d="M411 0L416.2 22.5C421.3 45 431.7 90 442.3 135C453 180 464 225 467.7 270C471.3 315 467.7 360 456.7 405C445.7 450 427.3 495 418.2 517.5L409 540L0 540L0 517.5C0 495 0 450 0 405C0 360 0 315 0 270C0 225 0 180 0 135C0 90 0 45 0 22.5L0 0Z" fill="#a3bea8"></path><path d="M401 0L407.5 22.5C414 45 427 90 425.3 135C423.7 180 407.3 225 395.2 270C383 315 375 360 384.2 405C393.3 450 419.7 495 432.8 517.5L446 540L0 540L0 517.5C0 495 0 450 0 405C0 360 0 315 0 270C0 225 0 180 0 135C0 90 0 45 0 22.5L0 0Z" fill="#9cb9a1"></path><path d="M391 0L387.8 22.5C384.7 45 378.3 90 379.7 135C381 180 390 225 392.3 270C394.7 315 390.3 360 390.3 405C390.3 450 394.7 495 396.8 517.5L399 540L0 540L0 517.5C0 495 0 450 0 405C0 360 0 315 0 270C0 225 0 180 0 135C0 90 0 45 0 22.5L0 0Z" fill="#95b59b"></path><path d="M355 0L348 22.5C341 45 327 90 327 135C327 180 341 225 340.7 270C340.3 315 325.7 360 321 405C316.3 450 321.7 495 324.3 517.5L327 540L0 540L0 517.5C0 495 0 450 0 405C0 360 0 315 0 270C0 225 0 180 0 135C0 90 0 45 0 22.5L0 0Z" fill="#8eb095"></path><path d="M295 0L291.3 22.5C287.7 45 280.3 90 281.2 135C282 180 291 225 296.5 270C302 315 304 360 301.8 405C299.7 450 293.3 495 290.2 517.5L287 540L0 540L0 517.5C0 495 0 450 0 405C0 360 0 315 0 270C0 225 0 180 0 135C0 90 0 45 0 22.5L0 0Z" fill="#87ab8f"></path><path d="M261 0L263.5 22.5C266 45 271 90 267.5 135C264 180 252 225 246.5 270C241 315 242 360 244.3 405C246.7 450 250.3 495 252.2 517.5L254 540L0 540L0 517.5C0 495 0 450 0 405C0 360 0 315 0 270C0 225 0 180 0 135C0 90 0 45 0 22.5L0 0Z" fill="#81a588"></path><path d="M225 0L223.3 22.5C221.7 45 218.3 90 216 135C213.7 180 212.3 225 212 270C211.7 315 212.3 360 216.2 405C220 450 227 495 230.5 517.5L234 540L0 540L0 517.5C0 495 0 450 0 405C0 360 0 315 0 270C0 225 0 180 0 135C0 90 0 45 0 22.5L0 0Z" fill="#7a9c81"></path><path d="M203 0L201.3 22.5C199.7 45 196.3 90 193.8 135C191.3 180 189.7 225 190 270C190.3 315 192.7 360 193.2 405C193.7 450 192.3 495 191.7 517.5L191 540L0 540L0 517.5C0 495 0 450 0 405C0 360 0 315 0 270C0 225 0 180 0 135C0 90 0 45 0 22.5L0 0Z" fill="#73947a"></path><path d="M151 0L151 22.5C151 45 151 90 149.5 135C148 180 145 225 143.8 270C142.7 315 143.3 360 146.8 405C150.3 450 156.7 495 159.8 517.5L163 540L0 540L0 517.5C0 495 0 450 0 405C0 360 0 315 0 270C0 225 0 180 0 135C0 90 0 45 0 22.5L0 0Z" fill="#6d8c74"></path><path d="M107 0L106.2 22.5C105.3 45 103.7 90 104.3 135C105 180 108 225 109.8 270C111.7 315 112.3 360 113.5 405C114.7 450 116.3 495 117.2 517.5L118 540L0 540L0 517.5C0 495 0 450 0 405C0 360 0 315 0 270C0 225 0 180 0 135C0 90 0 45 0 22.5L0 0Z" fill="#66846d"></path><path d="M70 0L71.8 22.5C73.7 45 77.3 90 79.2 135C81 180 81 225 80.5 270C80 315 79 360 78.7 405C78.3 450 78.7 495 78.8 517.5L79 540L0 540L0 517.5C0 495 0 450 0 405C0 360 0 315 0 270C0 225 0 180 0 135C0 90 0 45 0 22.5L0 0Z" fill="#607c66"></path></svg>