<svg id="Layer_1" data-name="Layer 1" xmlns="http://www.w3.org/2000/svg" viewBox="0 0 409.45 748.94"><defs><style>.cls-1{fill:none;}.cls-2{fill:#fd7670;}</style></defs><title>logo</title><path class="cls-1" d="M451.74,285.13a44.62,44.62,0,0,0-20.93-16q-13.1-5-32.45-5-7.85,0-16.22.52t-16,1.31c-5.06.52-9.6,1.14-13.6,1.83s-6.9,1.23-8.64,1.57V516.18q0,25.11,3.4,42.91t11.25,28.78a44.57,44.57,0,0,0,20.93,16q13.1,5,32.44,5,7.86,0,16.23-.52t16-1.31c5.06-.52,9.6-1.14,13.6-1.83s6.9-1.23,8.64-1.57V356.82q0-25.11-3.4-42.91T451.74,285.13Z" transform="translate(-295.28 -125.53)"/><path class="cls-1" d="M615.26,266c-5-.52-10.38-1-16-1.31s-11-.52-16.22-.52q-19.35,0-32.44,5a44.6,44.6,0,0,0-20.94,16q-7.85,11-11.24,28.78t-3.41,42.91V603.57c1.75.34,4.63.87,8.64,1.57s8.54,1.31,13.6,1.83,10.38,1,16,1.31,11,.52,16.22.52q19.35,0,32.44-5a44.57,44.57,0,0,0,20.93-16q7.86-11,11.25-28.78t3.4-42.91V269.43c-1.74-.34-4.62-.87-8.63-1.57S620.32,266.55,615.26,266Z" transform="translate(-295.28 -125.53)"/><path class="cls-1" d="M551.75,783.33q-10.92,0-16.91,8.45t-6,23.21q0,14.76,6,23.43t16.91,8.66q10.9,0,16.79-8.66T574.43,815q0-14.76-5.89-23.21T551.75,783.33Z" transform="translate(-295.28 -125.53)"/><path class="cls-2" d="M662.88,616.91q12.82-16.49,18-39.51a229.12,229.12,0,0,0,5.24-50.76V234.89q-16.75-4.17-44.48-8.89t-63.85-4.71q-32.43,0-53.89,9.16-20.61,8.81-33.23,24.38-12.64-15.56-33.23-24.38Q436,221.3,403.6,221.29q-36.11,0-63.84,4.71t-44.48,8.89V526.64a229.74,229.74,0,0,0,5.23,50.76q5.24,23,18.05,39.51t34.28,25.64q21.45,9.15,53.89,9.16,36.11,0,63.84-4.71c7.3-1.24,14-2.45,20.15-3.63q9.22,1.77,20.15,3.63,27.72,4.71,63.84,4.71,32.44,0,53.9-9.16T662.88,616.91ZM466.39,373.85V603.57c-1.74.34-4.62.87-8.64,1.57s-8.54,1.31-13.6,1.83-10.38,1-16,1.31-11,.52-16.23.52q-19.35,0-32.44-5a44.57,44.57,0,0,1-20.93-16q-7.84-11-11.25-28.78t-3.4-42.91V269.43c1.74-.34,4.62-.87,8.64-1.57s8.54-1.31,13.6-1.83,10.38-1,16-1.31,11-.52,16.22-.52q19.35,0,32.45,5a44.62,44.62,0,0,1,20.93,16q7.85,11,11.25,28.78t3.4,42.91Zm171.11,0V516.18q0,25.11-3.4,42.91t-11.25,28.78a44.57,44.57,0,0,1-20.93,16q-13.08,5-32.44,5-7.86,0-16.22-.52t-16-1.31c-5.06-.52-9.6-1.14-13.6-1.83s-6.89-1.23-8.64-1.57V356.82q0-25.11,3.41-42.91t11.24-28.78a44.6,44.6,0,0,1,20.94-16q13.08-5,32.44-5c5.23,0,10.65.18,16.22.52s10.91.79,16,1.31,9.6,1.14,13.61,1.83,6.89,1.23,8.63,1.57Z" transform="translate(-295.28 -125.53)"/><path class="cls-2" d="M468.48,180.73a32.94,32.94,0,0,0,44.48,0q9.15-8.62,9.16-23.28T513,134.16a33,33,0,0,0-44.48,0q-9.15,8.64-9.16,23.29T468.48,180.73Z" transform="translate(-295.28 -125.53)"/><rect class="cls-2" x="18.56" y="633.41" width="31.88" height="112.54"/><path class="cls-2" d="M462.53,770.7a36,36,0,0,0-15.08-10.59q-9.52-3.74-23.86-3.74a173,173,0,0,0-27,2,178.36,178.36,0,0,0-21,4.39V871.48h31.88V784.61c2-.28,4.28-.54,6.85-.75s5-.32,7.27-.32q11.13,0,15.19,6.42t4.07,21.82v59.7H472.8V807.93a87,87,0,0,0-2.35-21A41.48,41.48,0,0,0,462.53,770.7Z" transform="translate(-295.28 -125.53)"/><path class="cls-2" d="M591.54,772.2a50.62,50.62,0,0,0-17.44-12,60,60,0,0,0-44.5,0,51.8,51.8,0,0,0-17.54,12,55,55,0,0,0-11.56,18.61A67.29,67.29,0,0,0,496.33,815a69.71,69.71,0,0,0,4.07,24.29,55.3,55.3,0,0,0,11.34,18.82,49.92,49.92,0,0,0,17.43,12.09,62.23,62.23,0,0,0,45.36,0A50,50,0,0,0,592,858.1a52.76,52.76,0,0,0,11.13-18.82A73.4,73.4,0,0,0,607,815a68.84,68.84,0,0,0-4.07-24.18A54.35,54.35,0,0,0,591.54,772.2Zm-23,66.22q-5.88,8.67-16.79,8.66t-16.91-8.66q-6-8.67-6-23.43t6-23.21q6-8.46,16.91-8.45t16.79,8.45q5.88,8.44,5.89,23.21T568.54,838.42Z" transform="translate(-295.28 -125.53)"/><path class="cls-2" d="M698.52,759q-3.64-.75-7.27-1.28c-2.43-.36-4.86-.64-7.28-.86s-4.49-.32-6.2-.32a116.07,116.07,0,0,0-26,2.68,191.85,191.85,0,0,0-20.22,5.66V871.48h31.88v-86a42.12,42.12,0,0,1,6.31-1.18,57,57,0,0,1,7.17-.54,62.48,62.48,0,0,1,12.41,1.18q5.77,1.19,10.06,2.25l5.34-26.32A34.56,34.56,0,0,0,698.52,759Z" transform="translate(-295.28 -125.53)"/></svg>